# ASF file generated by Tido's ASF writer for MATLAB.
:version 1.10
:name VICON
:units
  mass 1
  length 0.45000000000000001
  angle deg
:documentation
   .ast/.asf automatically generated from VICON data using
   VICON BodyBuilder and BodyLanguage model FoxedUp or BRILLIANT.MOD
:root
  axis xyz
  order tx ty tz rx ry rz 
  position 0 0 0
  orientation 0 0 0
:bonedata
  begin
    id 1
    name lhipjoint
    direction 0.44017800000000001 -0.82263900000000001 0.359871
    length 1.1390085000000001
    axis 0 0 0 xyz
  end
  begin
    id 2
    name lfemur
    direction 0.34201999999999999 -0.939693 0
    length 3.5465939999999998
    axis 0 0 20 xyz
    dof rx ry rz 
    limits (-160 20)
           (-70 70)
           (-60 70)
  end
  begin
    id 3
    name ltibia
    direction 0.34201999999999999 -0.939693 0
    length 3.7970234999999999
    axis 0 0 20 xyz
    dof rx 
    limits (-10 170)
  end
  begin
    id 4
    name lfoot
    direction 0.088635099999999994 -0.24352299999999999 0.96583699999999995
    length 1.1853629999999999
    axis -90 7.62852e-016 20 xyz
    dof rx rz 
    limits (-45 90)
           (-70 20)
  end
  begin
    id 5
    name ltoes
    direction 1.53703e-011 -4.2171700000000001e-011 1
    length 0.59142150000000004
    axis -90 7.62852e-016 20 xyz
    dof rx 
    limits (-90 20)
  end
  begin
    id 6
    name rhipjoint
    direction -0.399779 -0.83977299999999999 0.367367
    length 1.115766
    axis 0 0 0 xyz
  end
  begin
    id 7
    name rfemur
    direction -0.34201999999999999 -0.939693 0
    length 3.4866269999999999
    axis 0 0 -20 xyz
    dof rx ry rz 
    limits (-160 20)
           (-70 70)
           (-70 60)
  end
  begin
    id 8
    name rtibia
    direction -0.34201999999999999 -0.939693 0
    length 3.9349440000000002
    axis 0 0 -20 xyz
    dof rx 
    limits (-10 170)
  end
  begin
    id 9
    name rfoot
    direction -0.108514 -0.29813899999999999 0.94833400000000001
    length 1.1974590000000001
    axis -90 -7.62852e-016 -20 xyz
    dof rx rz 
    limits (-45 90)
           (-20 70)
  end
  begin
    id 10
    name rtoes
    direction -1.5339199999999999e-011 -4.2207699999999999e-011 1
    length 0.59392350000000005
    axis -90 -7.62852e-016 -20 xyz
    dof rx 
    limits (-90 20)
  end
  begin
    id 11
    name lowerback
    direction 0.011325699999999999 0.99986600000000003 0.0118602
    length 1.164123
    axis 0 0 0 xyz
    dof rx ry rz 
    limits (-20 45)
           (-30 30)
           (-30 30)
  end
  begin
    id 12
    name upperback
    direction -0.016474699999999998 0.99519299999999999 -0.096537499999999998
    length 1.135656
    axis 0 0 0 xyz
    dof rx ry rz 
    limits (-20 45)
           (-30 30)
           (-30 30)
  end
  begin
    id 13
    name thorax
    direction -0.019430099999999999 0.99433000000000005 -0.10455200000000001
    length 1.1524455
    axis 0 0 0 xyz
    dof rx ry rz 
    limits (-20 45)
           (-30 30)
           (-30 30)
  end
  begin
    id 14
    name lowerneck
    direction 0.014854300000000001 0.995587 -0.092657000000000003
    length 0.772119
    axis 0 0 0 xyz
    dof rx ry rz 
    limits (-20 45)
           (-30 30)
           (-30 30)
  end
  begin
    id 15
    name upperneck
    direction -0.0135467 0.99365599999999998 -0.111639
    length 0.76021650000000007
    axis 0 0 0 xyz
    dof rx ry rz 
    limits (-20 45)
           (-30 30)
           (-30 30)
  end
  begin
    id 16
    name head
    direction -0.0061534900000000002 0.99954699999999996 -0.029447999999999998
    length 0.78578999999999999
    axis 0 0 0 xyz
    dof rx ry rz 
    limits (-20 45)
           (-30 30)
           (-30 30)
  end
  begin
    id 17
    name lclavicle
    direction 0.98826700000000001 0.14988499999999999 0.029371299999999999
    length 2.012499
    axis 0 0 0 xyz
    dof ry rz 
    limits (-20 10)
           (0 20)
  end
  begin
    id 18
    name lhumerus
    direction 1 -4.4898600000000001e-011 -1.1483300000000001e-027
    length 2.4171659999999999
    axis 180 -30 -90 xyz
    dof rx ry rz 
    limits (-60 90)
           (-90 90)
           (-90 90)
  end
  begin
    id 19
    name lradius
    direction 0.99999800000000005 0.00170963 -0.00098705499999999992
    length 1.773954
    axis 180 -30 -90 xyz
    dof rx 
    limits (-10 170)
  end
  begin
    id 20
    name lwrist
    direction 0.99999800000000005 7.53149e-005 -0.00194706
    length 0.88697700000000002
    axis 4.6505600000000004e-015 90 90 xyz
    dof ry 
    limits (-180 0)
  end
  begin
    id 21
    name lhand
    direction 1 -4.48973e-011 -1.3174599999999999e-026
    length 0.5306265
    axis 8.4064999999999996e-015 90 90 xyz
    dof rx rz 
    limits (-90 90)
           (-45 45)
  end
  begin
    id 22
    name lfingers
    direction 1 -4.49107e-011 -2.6349199999999999e-026
    length 0.42780555000000003
    axis 1.6812999999999999e-014 90 90 xyz
    dof rx 
    limits (0 90)
  end
  begin
    id 23
    name lthumb
    direction 0.70710700000000004 -6.3504800000000005e-011 0.70710700000000004
    length 0.6142455
    axis -90 45 2.8529899999999998e-015 xyz
    dof rx rz 
    limits (-45 45)
           (-45 45)
  end
  begin
    id 24
    name rclavicle
    direction -0.996699 0.064289499999999999 -0.049572499999999999
    length 2.0817494999999999
    axis 0 0 0 xyz
    dof ry rz 
    limits (-10 20)
           (-20 0)
  end
  begin
    id 25
    name rhumerus
    direction -1 -4.4891899999999998e-011 -2.4105900000000001e-027
    length 2.474145
    axis 180 30 90 xyz
    dof rx ry rz 
    limits (-90 60)
           (-90 90)
           (-90 90)
  end
  begin
    id 26
    name rradius
    direction -0.99999899999999997 0.0011810099999999999 -0.00068185800000000003
    length 1.5677145000000001
    axis 180 30 90 xyz
    dof rx 
    limits (-10 170)
  end
  begin
    id 27
    name rwrist
    direction -0.99999899999999997 0.000321823 -0.00132288
    length 0.78385499999999997
    axis 4.6505600000000004e-015 -90 -90 xyz
    dof ry 
    limits (-180 0)
  end
  begin
    id 28
    name rhand
    direction -1 -4.4902199999999998e-011 -1.3174599999999999e-026
    length 0.60719400000000001
    axis 8.4064999999999996e-015 -90 -90 xyz
    dof rx rz 
    limits (-90 90)
           (-45 45)
  end
  begin
    id 29
    name rfingers
    direction -1 -4.4917800000000002e-011 -2.6349199999999999e-026
    length 0.48953249999999998
    axis 1.6812999999999999e-014 -90 -90 xyz
    dof rx 
    limits (0 90)
  end
  begin
    id 30
    name rthumb
    direction -0.70710700000000004 -6.3471300000000002e-011 0.70710700000000004
    length 0.70287750000000004
    axis -90 -45 -2.8529899999999998e-015 xyz
    dof rx rz 
    limits (-45 45)
           (-45 45)
  end
:hierarchy
begin
  root lhipjoint rhipjoint lowerback 
  lhipjoint lfemur 
  lfemur ltibia 
  ltibia lfoot 
  lfoot ltoes 
  rhipjoint rfemur 
  rfemur rtibia 
  rtibia rfoot 
  rfoot rtoes 
  lowerback upperback 
  upperback thorax 
  thorax lowerneck lclavicle rclavicle 
  lowerneck upperneck 
  upperneck head 
  lclavicle lhumerus 
  lhumerus lradius 
  lradius lwrist 
  lwrist lhand lthumb 
  lhand lfingers 
  rclavicle rhumerus 
  rhumerus rradius 
  rradius rwrist 
  rwrist rhand rthumb 
  rhand rfingers 
end

# AMC file generated by Tido's AMC writer for MATLAB on 27-Nov-2005 at 18:24:20
# Corresponding ASF file: S:\data_MoCap\MoCaDaDB\HDM\Bonn_ASF_AMC_Use IK_on\björn\bjorn.asf
# Number of frames: 542
# Sampling rate: 120
:fully-specified
:degrees
255
root 3.585699 8.3801699999999997 -12.641265000000001 10.376799999999999 80.739400000000003 373.64100000000002 
lfemur 13.184200000000001 8.2297999999999991 -9.9562899999999992 
ltibia 45.732799999999997 
lfoot 19.495899999999999 -7.7328000000000001 
ltoes -21.211500000000001 
rfemur -27.665600000000001 -13.0868 26.886299999999999 
rtibia 41.724299999999999 
rfoot -10.115600000000001 6.0024899999999999 
rtoes 6.2747599999999997 
lowerback -3.0659200000000002 -2.0641699999999998 0.78448200000000001 
upperback 10.574400000000001 -2.49064 -0.69134600000000002 
thorax 13.1029 -0.93442499999999995 -1.5160499999999999 
lowerneck 3.45343 -8.9907699999999995 -2.06203 
upperneck 6.4047200000000002 -12.4293 11.289199999999999 
head 2.4389799999999999 -6.0027600000000003 3.8978600000000001 
lclavicle -1.0635e-014 -7.7526000000000006e-015 
lhumerus -12.783899999999999 -1.3761000000000001 79.501099999999994 
lradius 30.6815 
lwrist -15.2461 
lhand -24.999500000000001 -9.33643 
lfingers 7.1250200000000001 
lthumb 1.5120899999999999 20.638000000000002 
rclavicle -1.0635e-014 -7.7526000000000006e-015 
rhumerus -38.612099999999998 -42.160699999999999 -71.536600000000007 
rradius 14.681100000000001 
rwrist 30.5898 
rhand -3.8913000000000002 9.4086599999999994 
rfingers 7.1250200000000001 
rthumb 21.8583 -19.376799999999999 
256
root 3.664377 8.3862450000000006 -12.62124 8.7902900000000006 80.191400000000002 372.19299999999998 
lfemur 12.102399999999999 8.4081100000000006 -9.4839000000000002 
ltibia 48.056399999999996 
lfoot 21.936 -6.1268399999999996 
ltoes -18.052 
rfemur -26.789899999999999 -12.7668 26.9803 
rtibia 41.680900000000001 
rfoot -10.5352 6.3402599999999998 
rtoes 6.1453100000000003 
lowerback -2.9740099999999998 -1.96471 0.902949 
upperback 10.617900000000001 -2.3703599999999998 -0.63886900000000002 
thorax 13.0976 -0.867367 -1.50526 
lowerneck 3.4608400000000001 -9.0076900000000002 -2.0000300000000002 
upperneck 6.4325200000000002 -12.452 11.295999999999999 
head 2.4449100000000001 -6.0110700000000001 3.8884799999999999 
lclavicle -1.35174e-014 1.5902800000000001e-015 
lhumerus -13.200699999999999 -0.90603299999999998 79.836500000000001 
lradius 28.9009 
lwrist -16.645600000000002 
lhand -24.4071 -9.0515799999999995 
lfingers 7.1250200000000001 
lthumb 2.0841400000000001 20.917999999999999 
rclavicle -1.35174e-014 1.5902800000000001e-015 
rhumerus -36.327199999999998 -39.8461 -74.660200000000003 
rradius 15.350099999999999 
rwrist 28.271100000000001 
rhand -3.8795199999999999 9.5266500000000001 
rfingers 7.1250200000000001 
rthumb 21.869599999999998 -19.257400000000001 
257
root 3.7425375000000005 8.3940300000000008 -12.600540000000001 7.3614499999999996 79.613500000000002 370.90199999999999 
lfemur 10.929500000000001 8.6080500000000004 -9.0301100000000005 
ltibia 50.352600000000002 
lfoot 23.747900000000001 -4.4835099999999999 
ltoes -16.440300000000001 
rfemur -25.866399999999999 -12.3733 27.0627 
rtibia 41.584000000000003 
rfoot -10.9846 6.6331699999999998 
rtoes 6.1179600000000001 
lowerback -2.9061599999999999 -1.84985 1.01617 
upperback 10.685 -2.2262499999999998 -0.59822200000000003 
thorax 13.1364 -0.78722499999999995 -1.5027699999999999 
lowerneck 3.4620799999999998 -9.0334099999999999 -1.8376600000000001 
upperneck 6.4166100000000004 -12.477 11.2408 
head 2.4244400000000002 -6.0208199999999996 3.83955 
lclavicle 3.33958e-014 -9.1440899999999999e-015 
lhumerus -13.587999999999999 -0.219555 80.1738 
lradius 27.174900000000001 
lwrist -18.363700000000001 
lhand -23.771999999999998 -8.8016900000000007 
lfingers 7.1250200000000001 
lthumb 2.6975600000000002 21.161000000000001 
rclavicle 3.33958e-014 -9.1440899999999999e-015 
rhumerus -34.2286 -37.446399999999997 -77.551299999999998 
rradius 16.077500000000001 
rwrist 26.026 
rhand -3.99654 9.5591699999999999 
rfingers 7.1250200000000001 
rthumb 21.757300000000001 -19.238 
258
root 3.8193929999999998 8.4025350000000003 -12.579885000000001 6.2800900000000004 79.034800000000004 369.95999999999998 
lfemur 9.7110900000000004 8.7967499999999994 -8.6537900000000008 
ltibia 52.606099999999998 
lfoot 24.702999999999999 -3.1071599999999999 
ltoes -16.9877 
rfemur -24.9283 -11.924799999999999 27.098099999999999 
rtibia 41.445999999999998 
rfoot -11.443 6.8535500000000003 
rtoes 6.19137 
lowerback -2.8022100000000001 -1.7503200000000001 1.0755600000000001 
upperback 10.742000000000001 -2.09653 -0.56526699999999996 
thorax 13.142099999999999 -0.71973100000000001 -1.4793400000000001 
lowerneck 3.4369100000000001 -9.0428700000000006 -1.66364 
upperneck 6.4335800000000001 -12.482100000000001 11.1564 
head 2.4148800000000001 -6.0187600000000003 3.7774299999999998 
lclavicle 3.0066200000000001e-014 -6.1623200000000003e-015 
lhumerus -14.0436 0.560975 80.472200000000001 
lradius 25.529599999999999 
lwrist -20.238199999999999 
lhand -23.1069 -8.5335800000000006 
lfingers 7.1250200000000001 
lthumb 3.3398599999999998 21.420000000000002 
rclavicle 3.0066200000000001e-014 -6.1623200000000003e-015 
rhumerus -32.345799999999997 -35.219299999999997 -80.020399999999995 
rradius 16.763500000000001 
rwrist 24.3522 
rhand -4.2510199999999996 9.8138699999999996 
rfingers 7.1250200000000001 
rthumb 21.512899999999998 -19.011399999999998 
259
root 3.8957040000000003 8.412255 -12.558645 5.1720699999999997 78.442700000000002 369.00200000000001 
lfemur 8.4270700000000005 9.0055700000000005 -8.2774199999999993 
ltibia 54.823700000000002 
lfoot 25.3491 -2.2119399999999998 
ltoes -18.5213 
rfemur -23.933900000000001 -11.3972 27.151499999999999 
rtibia 41.241300000000003 
rfoot -11.917400000000001 7.0267400000000002 
rtoes 6.1396600000000001 
lowerback -2.6529600000000002 -1.64059 1.1557599999999999 
upperback 10.7822 -1.95506 -0.52834099999999995 
thorax 13.099299999999999 -0.64574500000000001 -1.4600500000000001 
lowerneck 3.4128799999999999 -9.0631000000000004 -1.5117499999999999 
upperneck 6.4778099999999998 -12.505699999999999 11.1006 
head 2.4198900000000001 -6.0246399999999998 3.7285200000000001 
lclavicle 4.9696200000000003e-016 6.7586799999999996e-015 
lhumerus -14.460900000000001 1.7529999999999999 80.7346 
lradius 23.803999999999998 
lwrist -22.704799999999999 
lhand -22.371400000000001 -8.4421400000000002 
lfingers 7.1250200000000001 
lthumb 4.0501100000000001 21.499099999999999 
rclavicle 4.9696200000000003e-016 6.7586799999999996e-015 
rhumerus -30.802399999999999 -32.8949 -82.180899999999994 
rradius 17.6007 
rwrist 22.847200000000001 
rhand -4.5452899999999996 10.414 
rfingers 7.1250200000000001 
rthumb 21.2302 -18.4434 
260
root 3.9699270000000002 8.4217050000000011 -12.53745 4.35405 77.810199999999995 368.32400000000001 
lfemur 7.12317 9.2126699999999992 -7.9996 
ltibia 56.9636 
lfoot 25.6127 -1.486 
ltoes -19.7744 
rfemur -22.960999999999999 -10.8371 27.175599999999999 
rtibia 41.011499999999998 
rfoot -12.3675 7.17666 
rtoes 5.9185299999999996 
lowerback -2.5038900000000002 -1.5232399999999999 1.19049 
upperback 10.8401 -1.79596 -0.50760499999999997 
thorax 13.0794 -0.56599299999999997 -1.43153 
lowerneck 3.3107199999999999 -9.0768900000000006 -1.34459 
upperneck 6.5296900000000004 -12.523400000000001 11.0266 
head 2.4382000000000001 -6.0251999999999999 3.66676 
lclavicle -4.5472000000000001e-014 1.1330699999999999e-014 
lhumerus -14.881 3.0590000000000002 80.918199999999999 
lradius 22.153500000000001 
lwrist -25.348800000000001 
lhand -21.406199999999998 -8.4938199999999995 
lfingers 7.1250200000000001 
lthumb 4.98217 21.427600000000002 
rclavicle -4.5472000000000001e-014 1.1330699999999999e-014 
rhumerus -29.389299999999999 -31.151399999999999 -83.9953 
rradius 18.405000000000001 
rwrist 22.2364 
rhand -4.9514899999999997 11.1471 
rfingers 7.1250200000000001 
rthumb 20.84 -17.753599999999999 
